<svg width="70" height="66" viewBox="0 0 70 66" fill="none" xmlns="http://www.w3.org/2000/svg">
<path d="M36.4643 6.93845L34.7971 8.21024L34.8078 8.22057L34.8187 8.2307L36.4643 6.93845ZM36.4643 35.9239L34.7884 34.6605L34.7775 34.6714L36.4643 35.9239ZM7.45536 36.1304L5.78817 37.4022L5.79844 37.412L7.45536 36.1304ZM7.45536 7.07614L5.77947 5.81276L5.76853 5.82367L7.45536 7.07614ZM17.8214 30.0028L15.7609 30.7384L15.7754 30.7684L15.7913 30.7981L17.8214 30.0028ZM26.0982 13.1349L24.0583 13.9117L24.0681 13.9301L26.0982 13.1349ZM22 3.82494C27.6471 3.82494 31.8143 5.34 34.7971 8.21024L38.1313 5.66665C34.15 1.83559 28.6741 0 22 0V3.82494ZM34.8187 8.2307C37.8413 11.0558 39.5357 15.381 39.5357 21.5344H44C44 14.836 42.1587 9.43059 38.1096 5.64619L34.8187 8.2307ZM39.5357 21.5344C39.5357 27.3805 37.8585 31.6713 34.7884 34.6605L38.14 37.1872C42.1413 33.2915 44 27.9894 44 21.5344H39.5357ZM34.7775 34.6714C31.7886 37.6262 27.6272 39.1751 22 39.1751V43C28.6942 43 34.1757 41.1065 38.1511 37.1763L34.7775 34.6714ZM22 39.1751C16.2826 39.1751 12.0884 37.6736 9.11206 34.8489L5.79844 37.412C9.78638 41.1967 15.2888 43 22 43V39.1751ZM9.12232 34.8586C6.13437 31.9836 4.46429 27.6232 4.46429 21.4656H0C0 28.1598 1.81183 33.5759 5.78817 37.4022L9.12232 34.8586ZM4.46429 21.4656C4.46429 15.6128 6.11853 11.3178 9.14219 8.32862L5.76853 5.82367C1.82768 9.71937 0 15.0173 0 21.4656H4.46429ZM9.13103 8.33952C12.1768 5.37404 16.3734 3.82494 22 3.82494V0C15.3051 0 9.80491 1.89335 5.77947 5.81276L9.13103 8.33952ZM22 8.74382C20.6598 8.74382 19.3866 9.04542 18.2819 9.71344C17.194 10.3713 16.4118 11.2983 15.8621 12.3582L19.9415 13.9115C20.2489 13.319 20.5781 13.0067 20.8565 12.8384C21.1179 12.6803 21.4652 12.5688 22 12.5688V8.74382ZM15.8621 12.3582C14.7998 14.4059 14.3839 17.5358 14.3839 21.4656H18.8482C18.8482 17.5924 19.2895 15.1686 19.9415 13.9115L15.8621 12.3582ZM14.3839 21.4656C14.3839 25.5187 14.7714 28.7039 15.7609 30.7384L19.8819 29.2673C19.2641 27.997 18.8482 25.4908 18.8482 21.4656H14.3839ZM15.7913 30.7981C16.352 31.849 17.1545 32.7578 18.2625 33.3967C19.3799 34.041 20.6596 34.325 22 34.325V30.5001C21.4118 30.5001 21.0306 30.3825 20.7554 30.2235C20.4703 30.0593 20.148 29.7632 19.8513 29.2076L15.7913 30.7981ZM22 34.325C23.3402 34.325 24.6134 34.0234 25.7181 33.3554C26.8058 32.6975 27.5882 31.7705 28.1379 30.7107L24.0585 29.1573C23.7511 29.7498 23.4217 30.0621 23.1435 30.2304C22.8821 30.3886 22.5348 30.5001 22 30.5001V34.325ZM28.1379 30.7107C29.2011 28.6612 29.6161 25.5064 29.6161 21.5344H25.1518C25.1518 25.4571 24.7096 27.902 24.0585 29.1573L28.1379 30.7107ZM29.6161 21.5344C29.6161 17.528 29.2042 14.3563 28.1281 12.3396L24.0681 13.9301C24.7062 15.1263 25.1518 17.5544 25.1518 21.5344H29.6161ZM28.1379 12.3582C27.5882 11.2983 26.8058 10.3713 25.7181 9.71344C24.6134 9.04542 23.3402 8.74382 22 8.74382V12.5688C22.5348 12.5688 22.8821 12.6803 23.1435 12.8384C23.4217 13.0067 23.7509 13.3192 24.0583 13.9117L28.1379 12.3582Z" fill="#FF5F00"/>
<path d="M68.9504 21.3112C69.0501 21.0066 68.9978 20.6726 68.8097 20.4131C68.6216 20.1536 68.3205 20 68 20H51.8968C51.4319 20 51.0283 20.3204 50.9229 20.7733L44.6491 47.7245L36.8778 20.7234C36.7545 20.295 36.3626 20 35.9168 20H22C21.6801 20 21.3795 20.1531 21.1913 20.4117C21.0031 20.6704 20.9501 21.0036 21.0486 21.3079L34.9654 64.3079C35.0989 64.7205 35.4832 65 35.9168 65H53.9214C54.3538 65 54.7372 64.7221 54.8718 64.3112L68.9504 21.3112Z" fill="#FF5F00" stroke="white" stroke-width="2" stroke-linejoin="round"/>
</svg>
